<svg xmlns="http://www.w3.org/2000/svg" width="2927" height="777" viewBox="0 0 2927 777"><g><g opacity=".6" transform="scale(-1 1) rotate(-16 0 10801.344)"><g opacity=".26" transform="rotate(-10 1463.5 388)"><g opacity=".26"><path fill="none" stroke="#000" stroke-miterlimit="50" d="M981.76 48.08v0s270 1 449 216 417 231 528 209 548-32 718 78 247 182 247 182v0"/></g><g opacity=".26"><path fill="none" stroke="#000" stroke-miterlimit="50" d="M961.76 48.08v0s270 1 449 216 417 231 528 209 548-32 718 78 247 182 247 182v0"/></g><g opacity=".26"><path fill="none" stroke="#000" stroke-miterlimit="50" d="M941.76 48.08v0s270 1 449 216 417 231 528 209 548-32 718 78 247 182 247 182v0"/></g><g opacity=".26"><path fill="none" stroke="#000" stroke-miterlimit="50" d="M921.76 48.08v0s270 1 449 216 417 231 528 209 548-32 718 78 247 182 247 182v0"/></g><g opacity=".26"><path fill="none" stroke="#000" stroke-miterlimit="50" d="M901.76 48.08v0s270 1 449 216 417 231 528 209 548-32 718 78 247 182 247 182v0"/></g><g opacity=".26"><path fill="none" stroke="#000" stroke-miterlimit="50" d="M881.76 48.08v0s270 1 449 216 417 231 528 209 548-32 718 78 247 182 247 182v0"/></g><g opacity=".26"><path fill="none" stroke="#000" stroke-miterlimit="50" d="M861.76 48.08v0s270 1 449 216 417 231 528 209 548-32 718 78 247 182 247 182v0"/></g><g opacity=".26"><path fill="none" stroke="#000" stroke-miterlimit="50" d="M841.76 48.08v0s270 1 449 216 417 231 528 209 548-32 718 78 247 182 247 182v0"/></g><g opacity=".26"><path fill="none" stroke="#000" stroke-miterlimit="50" d="M821.76 48.08v0s270 1 449 216 417 231 528 209 548-32 718 78 247 182 247 182v0"/></g><g opacity=".26"><path fill="none" stroke="#000" stroke-miterlimit="50" d="M801.76 48.08v0s270 1 449 216 417 231 528 209 548-32 718 78 247 182 247 182v0"/></g><g opacity=".26"><path fill="none" stroke="#000" stroke-miterlimit="50" d="M781.76 48.08v0s270 1 449 216 417 231 528 209 548-32 718 78 247 182 247 182v0"/></g><g opacity=".26"><path fill="none" stroke="#000" stroke-miterlimit="50" d="M761.76 48.08v0s270 1 449 216 417 231 528 209 548-32 718 78 247 182 247 182v0"/></g><g opacity=".26"><path fill="none" stroke="#000" stroke-miterlimit="50" d="M741.76 48.08v0s270 1 449 216 417 231 528 209 548-32 718 78 247 182 247 182v0"/></g><g opacity=".26"><path fill="none" stroke="#000" stroke-miterlimit="50" d="M721.76 48.08v0s270 1 449 216 417 231 528 209 548-32 718 78 247 182 247 182v0"/></g><g opacity=".26"><path fill="none" stroke="#000" stroke-miterlimit="50" d="M701.76 48.08v0s270 1 449 216 417 231 528 209 548-32 718 78 247 182 247 182v0"/></g><g opacity=".26"><path fill="none" stroke="#000" stroke-miterlimit="50" d="M681.76 48.08v0s270 1 449 216 417 231 528 209 548-32 718 78 247 182 247 182v0"/></g><g opacity=".26"><path fill="none" stroke="#000" stroke-miterlimit="50" d="M661.76 48.08v0s270 1 449 216 417 231 528 209 548-32 718 78 247 182 247 182v0"/></g><g opacity=".26"><path fill="none" stroke="#000" stroke-miterlimit="50" d="M641.76 48.08v0s270 1 449 216 417 231 528 209 548-32 718 78 247 182 247 182v0"/></g><g opacity=".26"><path fill="none" stroke="#000" stroke-miterlimit="50" d="M621.76 48.08v0s270 1 449 216 417 231 528 209 548-32 718 78 247 182 247 182v0"/></g><g opacity=".26"><path fill="none" stroke="#000" stroke-miterlimit="50" d="M601.76 48.08v0s270 1 449 216 417 231 528 209 548-32 718 78 247 182 247 182v0"/></g><g opacity=".26"><path fill="none" stroke="#000" stroke-miterlimit="50" d="M581.76 48.08v0s270 1 449 216 417 231 528 209 548-32 718 78 247 182 247 182v0"/></g><g opacity=".26"><path fill="none" stroke="#000" stroke-miterlimit="50" d="M561.76 48.08v0s270 1 449 216 417 231 528 209 548-32 718 78 247 182 247 182v0"/></g><g opacity=".26"><path fill="none" stroke="#000" stroke-miterlimit="50" d="M541.76 48.08v0s270 1 449 216 417 231 528 209 548-32 718 78 247 182 247 182v0"/></g><g opacity=".26"><path fill="none" stroke="#000" stroke-miterlimit="50" d="M521.76 48.08v0s270 1 449 216 417 231 528 209 548-32 718 78 247 182 247 182v0"/></g><g opacity=".26"><path fill="none" stroke="#000" stroke-miterlimit="50" d="M501.76 48.08v0s270 1 449 216 417 231 528 209 548-32 718 78 247 182 247 182v0"/></g><g opacity=".26"><path fill="none" stroke="#000" stroke-miterlimit="50" d="M481.76 48.08v0s270 1 449 216 417 231 528 209 548-32 718 78 247 182 247 182v0"/></g><g opacity=".26"><path fill="none" stroke="#000" stroke-miterlimit="50" d="M461.76 48.08v0s270 1 449 216 417 231 528 209 548-32 718 78 247 182 247 182v0"/></g><g opacity=".26"><path fill="none" stroke="#000" stroke-miterlimit="50" d="M441.76 48.08v0s270 1 449 216 417 231 528 209 548-32 718 78 247 182 247 182v0"/></g><g opacity=".26"><path fill="none" stroke="#000" stroke-miterlimit="50" d="M421.76 48.08v0s270 1 449 216 417 231 528 209 548-32 718 78 247 182 247 182v0"/></g><g opacity=".26"><path fill="none" stroke="#000" stroke-miterlimit="50" d="M401.76 48.08v0s270 1 449 216 417 231 528 209 548-32 718 78 247 182 247 182v0"/></g><g opacity=".26"><path fill="none" stroke="#000" stroke-miterlimit="50" d="M381.76 48.08v0s270 1 449 216 417 231 528 209 548-32 718 78 247 182 247 182v0"/></g><g opacity=".26"><path fill="none" stroke="#000" stroke-miterlimit="50" d="M361.76 48.08v0s270 1 449 216 417 231 528 209 548-32 718 78 247 182 247 182v0"/></g><g opacity=".26"><path fill="none" stroke="#000" stroke-miterlimit="50" d="M341.76 48.08v0s270 1 449 216 417 231 528 209 548-32 718 78 247 182 247 182v0"/></g><g opacity=".26"><path fill="none" stroke="#000" stroke-miterlimit="50" d="M321.76 48.08v0s270 1 449 216 417 231 528 209 548-32 718 78 247 182 247 182v0"/></g><g opacity=".26"><path fill="none" stroke="#000" stroke-miterlimit="50" d="M301.76 48.08v0s270 1 449 216 417 231 528 209 548-32 718 78 247 182 247 182v0"/></g><g opacity=".26"><path fill="none" stroke="#000" stroke-miterlimit="50" d="M281.76 48.08v0s270 1 449 216 417 231 528 209 548-32 718 78 247 182 247 182v0"/></g><g opacity=".26"><path fill="none" stroke="#000" stroke-miterlimit="50" d="M261.76 48.08v0s270 1 449 216 417 231 528 209 548-32 718 78 247 182 247 182v0"/></g><g opacity=".26"><path fill="none" stroke="#000" stroke-miterlimit="50" d="M241.76 48.08v0s270 1 449 216 417 231 528 209 548-32 718 78 247 182 247 182v0"/></g><g opacity=".26"><path fill="none" stroke="#000" stroke-miterlimit="50" d="M221.76 48.08v0s270 1 449 216 417 231 528 209 548-32 718 78 247 182 247 182v0"/></g><g opacity=".26"><path fill="none" stroke="#000" stroke-miterlimit="50" d="M201.76 48.08v0s270 1 449 216 417 231 528 209 548-32 718 78 247 182 247 182v0"/></g><g opacity=".26"><path fill="none" stroke="#000" stroke-miterlimit="50" d="M181.76 48.08v0s270 1 449 216 417 231 528 209 548-32 718 78 247 182 247 182v0"/></g><g opacity=".26"><path fill="none" stroke="#000" stroke-miterlimit="50" d="M161.76 48.08v0s270 1 449 216 417 231 528 209 548-32 718 78 247 182 247 182v0"/></g><g opacity=".26"><path fill="none" stroke="#000" stroke-miterlimit="50" d="M141.76 48.08v0s270 1 449 216 417 231 528 209 548-32 718 78 247 182 247 182v0"/></g><g opacity=".26"><path fill="none" stroke="#000" stroke-miterlimit="50" d="M121.76 48.08v0s270 1 449 216 417 231 528 209 548-32 718 78 247 182 247 182v0"/></g><g opacity=".26"><path fill="none" stroke="#000" stroke-miterlimit="50" d="M101.76 48.08v0s270 1 449 216 417 231 528 209 548-32 718 78 247 182 247 182v0"/></g><g opacity=".26"><path fill="none" stroke="#000" stroke-miterlimit="50" d="M81.76 48.08v0s270 1 449 216 417 231 528 209 548-32 718 78 247 182 247 182v0"/></g><g opacity=".26"><path fill="none" stroke="#000" stroke-miterlimit="50" d="M61.76 48.08v0s270 1 449 216 417 231 528 209 548-32 718 78 247 182 247 182v0"/></g><g opacity=".26"><path fill="none" stroke="#000" stroke-miterlimit="50" d="M41.76 48.08v0s270 1 449 216 417 231 528 209 548-32 718 78 247 182 247 182v0"/></g><g opacity=".26"><path fill="none" stroke="#000" stroke-miterlimit="50" d="M21.76 48.08v0s270 1 449 216 417 231 528 209 548-32 718 78 247 182 247 182v0"/></g><g opacity=".26"><path fill="none" stroke="#000" stroke-miterlimit="50" d="M1.76 48.08v0s270 1 449 216 417 231 528 209 548-32 718 78 247 182 247 182v0"/></g></g></g></g></svg>