<svg xmlns="http://www.w3.org/2000/svg" width="342" height="294" viewBox="0 0 342 294"><g><g><g><path fill="none" stroke="#fff" stroke-linecap="square" stroke-miterlimit="50" stroke-width="42.3" d="M29 76v0s110.073-54 142-54c31.927 0 142 54 142 54v0"/></g><g><path fill="#fff" d="M215.255 135.34c-5.822-4.726-11.643-8.225-17.465-10.496-5.822-2.272-11.461-3.408-16.92-3.408-6.913 0-12.552 1.636-16.918 4.907-4.367 3.271-6.55 7.542-6.55 12.813 0 3.635 1.092 6.633 3.275 8.996 2.183 2.363 5.048 4.407 8.596 6.134 3.547 1.726 7.55 3.226 12.007 4.498a319.051 319.051 0 0 1 13.235 4.09c17.465 5.815 30.246 13.584 38.341 23.308 8.096 9.723 12.144 22.4 12.144 38.03 0 10.54-1.774 20.082-5.321 28.623-3.548 8.542-8.733 15.857-15.555 21.946-6.822 6.088-15.191 10.813-25.106 14.176-9.915 3.362-21.149 5.043-33.702 5.043-26.016 0-50.12-7.724-72.316-23.172l22.923-43.073c8.005 7.088 15.918 12.358 23.741 15.812 7.823 3.453 15.555 5.18 23.196 5.18 8.732 0 15.236-2 19.512-5.998 4.275-3.999 6.413-8.542 6.413-13.63 0-3.09-.546-5.771-1.638-8.043-1.091-2.272-2.91-4.362-5.458-6.27-2.547-1.908-5.867-3.68-9.96-5.316-4.093-1.636-9.05-3.453-14.873-5.452a298.783 298.783 0 0 1-20.33-7.225c-6.64-2.635-12.553-6.133-17.738-10.495-5.185-4.362-9.37-9.86-12.553-16.493-3.184-6.634-4.775-15.04-4.775-25.217 0-10.178 1.682-19.4 5.048-27.67 3.366-8.27 8.096-15.357 14.19-21.264 6.095-5.907 13.554-10.496 22.377-13.767C151.9 78.636 161.768 77 172.684 77c10.188 0 20.83 1.408 31.928 4.226 11.098 2.817 21.74 6.951 31.928 12.403z"/></g></g></g></svg>