<svg xmlns="http://www.w3.org/2000/svg" width="109" height="29" viewBox="0 0 109 29"><defs><linearGradient id="vdqpa" x1="-40.99" x2="102.84" y1="-15.13" y2="28.87" gradientUnits="userSpaceOnUse"><stop offset="0" stop-color="#c299fd"/><stop offset="1" stop-color="#8f60f9"/></linearGradient></defs><g><g><path fill="url(#vdqpa)" d="M16.969 4.838l-2.77 4.19c-.16.234-.357.35-.591.35-.185 0-.376-.049-.573-.147-1.366-.64-2.64-.96-3.822-.96-.53 0-.97.117-1.32.35-.351.235-.526.536-.526.905 0 .345.197.658.59.941.394.283.908.548 1.542.794s1.333.52 2.096.821c.763.302 1.53.686 2.3 1.154.769.468 1.47 1.009 2.104 1.624.634.615 1.148 1.415 1.542 2.4.394.984.59 2.098.59 3.34 0 .726-.104 1.459-.313 2.197-.21.738-.554 1.476-1.034 2.215a8.353 8.353 0 0 1-1.773 1.956c-.701.566-1.588 1.024-2.659 1.375-1.07.35-2.259.526-3.564.526-1.637 0-3.117-.255-4.44-.766-1.324-.51-2.675-1.27-4.054-2.28-.406-.356-.498-.713-.277-1.07l2.77-4.153c.11-.258.314-.387.61-.387.147 0 .332.067.553.203.727.529 1.552.969 2.475 1.32.923.35 1.754.526 2.493.526.75 0 1.314-.154 1.69-.462.375-.308.562-.683.562-1.126 0-.357-.153-.686-.461-.987-.308-.302-.714-.557-1.219-.766-.505-.21-1.08-.452-1.726-.73-.647-.276-1.305-.56-1.976-.848-.671-.29-1.33-.668-1.976-1.135a10.724 10.724 0 0 1-1.727-1.55c-.504-.567-.91-1.29-1.218-2.17-.308-.88-.462-1.854-.462-2.925C.405 7.237 1.27 5.34 3 3.87 4.73 2.4 6.911 1.663 9.545 1.663c2.561 0 4.943.708 7.147 2.123.43.295.523.646.277 1.052zm37.098 18.328c.763 0 1.419-.059 1.967-.175.548-.117 1.16-.323 1.837-.619a1.3 1.3 0 0 1 .462-.11c.172 0 .375.116.609.35l2.382 3.36c.295.38.222.707-.222.978-2.154 1.28-4.567 1.92-7.238 1.92a9.282 9.282 0 0 1-3.767-.795 10.166 10.166 0 0 1-3.139-2.122 10.162 10.162 0 0 1-2.123-3.138 9.271 9.271 0 0 1-.794-3.765c0-1.673.387-3.258 1.163-4.753a9.573 9.573 0 0 1 3.324-3.654c1.44-.941 3.046-1.412 4.82-1.412 1.205 0 2.323.188 3.35.563 1.028.375 1.918.901 2.669 1.578a9.828 9.828 0 0 1 1.92 2.38c.53.911.926 1.911 1.191 3a14.45 14.45 0 0 1 .397 3.424c0 .529-.252.794-.757.794H50.466a3.5 3.5 0 0 0 1.395 1.605c.634.394 1.37.59 2.206.59zm-3.53-6.46h5.786c-.295-.75-.696-1.335-1.201-1.753a2.698 2.698 0 0 0-1.775-.628c-.653 0-1.22.21-1.7.628-.482.418-.851 1.002-1.11 1.753zM72.03 28.5H66.69c-.505 0-.758-.252-.758-.757V.907c0-.505.253-.757.758-.757h5.341c.505 0 .758.252.758.757v26.836c0 .505-.253.757-.758.757zm17.074-6.312l1.994 4.3c.16.43.062.738-.295.923-1.638.972-3.466 1.458-5.485 1.458-2.253 0-3.983-.609-5.19-1.827-1.206-1.218-1.81-2.96-1.81-5.223v-5.98h-1.514a.777.777 0 0 1-.545-.194c-.141-.13-.212-.317-.212-.563v-4.725c0-.505.252-.757.757-.757h1.515V4.764c0-.504.252-.756.757-.756h5.337c.505 0 .757.252.757.756V9.6h4.081c.505 0 .758.252.758.757v4.725c0 .221-.071.403-.213.544a.738.738 0 0 1-.545.212h-4.08v5.02c0 .555.12.945.36 1.173.24.227.593.341 1.061.341.493 0 1.065-.147 1.718-.443a.525.525 0 0 1 .295-.074c.222 0 .388.111.499.333zM20.5 11.469V4.757c0-.505.253-.757.758-.757h5.452c.505 0 .758.252.758.757V9.99zm13.988 1.323l7.348 1.562a.7.7 0 0 1 .34.6v12.757c0 .504-.252.756-.756.756h-5.447c-.48 0-.72-.252-.72-.756v-7.405l-2.894-.725a3.803 3.803 0 0 0-1.803-.01l-3.095.735v7.405c0 .504-.252.756-.757.756h-5.447c-.504 0-.757-.252-.757-.756V14.434l7.095-1.508 2.719-.542a5.704 5.704 0 0 1 2.288.012zM95.078 9.6h5.337c.505 0 .757.252.757.757v1.772h.037c.357-.751.954-1.422 1.791-2.012.837-.59 1.73-.886 2.678-.886 1.219 0 2.222.221 3.01.664.333.197.413.579.24 1.145l-1.44 4.91c-.086.282-.252.424-.499.424a1.03 1.03 0 0 1-.443-.13c-.492-.22-1.046-.332-1.662-.332-1.108 0-2.004.348-2.687 1.043-.683.695-1.025 1.732-1.025 3.11v7.678c0 .505-.252.757-.757.757h-5.337c-.505 0-.758-.252-.758-.757V10.357c0-.505.253-.757.758-.757z"/></g></g></svg>